<?xml version="1.0" encoding="utf-8"?>
<!-- Generator: Adobe Illustrator 23.0.2, SVG Export Plug-In . SVG Version: 6.00 Build 0)  -->
<svg version="1.1" id="Layer_1" xmlns="http://www.w3.org/2000/svg" xmlns:xlink="http://www.w3.org/1999/xlink" x="0px" y="0px"
	 viewBox="0 0 640 480" style="enable-background:new 0 0 640 480;" xml:space="preserve">
<style type="text/css">
	.st0{fill:none;stroke:#000000;stroke-miterlimit:10;}
	.st1{fill:none;stroke:#FFFFFF;stroke-miterlimit:10;}
</style>
<path class="st0" d="M39.29,263.72"/>
<path class="st1" d="M165.7,451.23c-28.78-3.44-56.73-13.66-80.94-29.61c-11.36-7.48-22.11-16.44-29.13-28.09
	c-8.14-13.5-10.73-29.78-10.01-45.53c1.31-28.61,13.35-56.6,33.21-77.23c22.03-22.88,52.08-35.97,77.86-54.53
	c24.54-17.66,45.32-40.51,60.6-66.6c6.67-11.4,11.59-27.68,1.64-36.36c-10.88-9.49-28.73,1.03-33.87,14.52
	c-1.92,5.03-2.84,10.74-0.94,15.78c3.04,8.05,12.63,12.08,21.2,11.35c8.58-0.73,16.35-5.17,23.67-9.7
	c42.93-26.6,81.43-60.3,126.3-83.48c17.08-8.82,35.21-16.13,54.27-18.61c31.77-4.13,64.55,5.7,90.82,24.04s46.3,44.73,60.07,73.66"
	/>
</svg>
