<?xml version="1.0" encoding="utf-8"?>
<!-- Generator: Adobe Illustrator 24.1.0, SVG Export Plug-In . SVG Version: 6.00 Build 0)  -->
<svg version="1.1" id="Layer_1" xmlns="http://www.w3.org/2000/svg" xmlns:xlink="http://www.w3.org/1999/xlink" x="0px" y="0px"
	 viewBox="0 0 640 480" style="enable-background:new 0 0 640 480;" xml:space="preserve">
<style type="text/css">
	.st0{fill:none;stroke:#FDCCAA;stroke-miterlimit:10;}
	.st1{fill:none;stroke:#BD6D2E;stroke-miterlimit:10;}
	.st2{fill:#BD6D2E;}
	.st3{font-family:'Didot';}
	.st4{font-size:93.779px;}
</style>
<path class="st0" d="M-430-58c0.33,0,0.67,0,1,0"/>
<g>
	<path class="st1" d="M334.88,140.93c-37.94-5.47-80.65,23.17-99.28,60.8c-17,34.34-20.39,87.04,9.21,111.15
		c15.61,12.72,35.75,18.64,55.15,22.66c22.1,4.58,45.84,6.51,67.78,0.09c18.33-5.36,34.3-16.85,40.85-35.33
		c10.1-28.48,9.87-52.77,7.09-67.22c-6.93-36.02-31.79-79.28-72.83-90.46C338.76,141.51,335.78,141.06,334.88,140.93z"/>
	<text transform="matrix(0.9877 0 0 1 252.2245 276.704)" class="st2 st3 st4">AD</text>
</g>
</svg>
