<svg xmlns="http://www.w3.org/2000/svg" viewBox="0 0 523.6 357.2"><defs><style>.cls-1{fill:none;stroke:#000;stroke-miterlimit:10;}</style></defs><title>blackline3.svg</title><g id="Layer_2" data-name="Layer 2"><g id="Layer_1-2" data-name="Layer 1"><path class="cls-1" d="M.18,356.73a239.94,239.94,0,0,0,93.33-65.82c12.11-14,23.06-30.8,22.27-49.25-.4-9.26-7.21-20.29-16.18-18-7.54,1.94-9.67,11.48-10.26,19.25-.93,12.23-1.22,25.64,6.17,35.43,5.76,7.63,15.39,11.63,24.92,12.3,21.66,1.54,41.26-12.07,57.91-26C250.21,204.49,305.13,126.88,371,60.22c18.38-18.6,38.06-36.64,61.75-47.72A128.15,128.15,0,0,1,492.41.62c8.11.36,16.6,1.66,23.05,6.6s10,14.48,5.89,21.5"/></g></g></svg>