<svg xmlns="http://www.w3.org/2000/svg" viewBox="0 0 296.22 215.58"><defs><style>.cls-1{fill:none;stroke:#000;stroke-miterlimit:10;}</style></defs><title>blackline4</title><g id="Layer_2" data-name="Layer 2"><g id="Layer_1-2" data-name="Layer 1"><path class="cls-1" d="M.46,17C6.51,3.4,24.16-2.22,38.52,1.75S64.08,17.12,72.13,29.66,85.77,56.15,93.35,69c3.49,5.91,7.51,11.68,13.07,15.71s12.17,6,18.89,6.79a58.19,58.19,0,0,0,38.19-9c4.33-2.82,8.58-6.77,9-11.92s-5.29-10.53-9.77-7.95c-2.95,6.62-5.88,14.48-2.32,20.8,1.87,3.33,5.23,5.52,8.52,7.48,16.89,10.13,35.08,17.92,52.24,27.59s33.6,21.58,44.64,37.89c12.36,18.28,17.15,40.93,30,58.88"/></g></g></svg>