<svg xmlns="http://www.w3.org/2000/svg" viewBox="0 0 515.88 410.01"><defs><style>.cls-1{fill:none;stroke:#fff;stroke-miterlimit:10;}</style></defs><title>Asset 5</title><g id="Layer_2" data-name="Layer 2"><g id="Layer_1-2" data-name="Layer 1"><path class="cls-1" d="M120.69,409.51a188.39,188.39,0,0,1-80.94-29.6c-11.36-7.49-22.1-16.44-29.13-28.09C2.48,338.32-.11,322,.62,306.29a120.43,120.43,0,0,1,33.2-77.22c22-22.89,52.08-36,77.86-54.53a218.41,218.41,0,0,0,60.6-66.6c6.67-11.39,11.59-27.67,1.64-36.36C163,62.1,145.19,72.62,140,86.1c-1.92,5-2.84,10.74-.94,15.78,3.05,8.06,12.63,12.08,21.21,11.35s16.35-5.17,23.67-9.7c42.93-26.6,81.43-60.3,126.29-83.49,17.08-8.82,35.21-16.12,54.27-18.6,31.77-4.14,64.55,5.69,90.82,24s46.3,44.73,60.07,73.66"/></g></g></svg>